<?xml version="1.0" encoding="utf-8"?>
<!-- Generator: Adobe Illustrator 21.0.2, SVG Export Plug-In . SVG Version: 6.00 Build 0)  -->
<svg version="1.1"
	 id="svg4693" inkscape:version="0.48.4 r9939" sodipodi:docname="octoprint-favicon-apple.svg" xmlns:cc="http://creativecommons.org/ns#" xmlns:dc="http://purl.org/dc/elements/1.1/" xmlns:inkscape="http://www.inkscape.org/namespaces/inkscape" xmlns:rdf="http://www.w3.org/1999/02/22-rdf-syntax-ns#" xmlns:sodipodi="http://sodipodi.sourceforge.net/DTD/sodipodi-0.dtd" xmlns:svg="http://www.w3.org/2000/svg"
	 xmlns="http://www.w3.org/2000/svg" xmlns:xlink="http://www.w3.org/1999/xlink" x="0px" y="0px" viewBox="0 0 16 16"
	 style="enable-background:new 0 0 16 16;" xml:space="preserve">
<sodipodi:namedview  bordercolor="#666666" borderopacity="1.0" id="base" inkscape:current-layer="layer1" inkscape:cx="11.852657" inkscape:cy="8.0632297" inkscape:document-units="px" inkscape:pageopacity="0.0" inkscape:pageshadow="2" inkscape:window-height="1017" inkscape:window-maximized="1" inkscape:window-width="1920" inkscape:window-x="1912" inkscape:window-y="760" inkscape:zoom="31.678384" pagecolor="#ffffff" showgrid="false">
	</sodipodi:namedview>
<g id="XMLID_1408_">
	<path id="XMLID_1412_" d="M0.9,6.8c0-0.9,0.3-1.6,0.9-2C2.4,4.3,3.1,4.1,4,4.1c0.5,0,1,0.1,1.4,0.2C5.7,4.5,6,4.6,6.2,4.9
		c0.2,0.2,0.4,0.4,0.5,0.6c0.1,0.2,0.1,0.4,0.1,0.6c0,0.4,0,0.7-0.1,0.9C6.6,7.2,6.5,7.4,6.4,7.5C6,7.7,5.9,7.8,5.9,7.7v0
		c0,0,0.2,0.1,0.6,0.3c0.2,0.1,0.3,0.3,0.4,0.5c0.1,0.2,0.2,0.6,0.2,1c0,0.2,0,0.5-0.1,0.8c-0.1,0.3-0.3,0.5-0.5,0.8
		c-0.2,0.2-0.6,0.4-1,0.6C5,11.9,4.5,12,3.9,12c-0.8,0-1.5-0.1-2-0.4c-0.5-0.2-0.8-0.5-1-0.9c-0.2-0.4-0.3-0.7-0.3-1
		c0-0.3-0.1-0.6,0-0.7h2c0,0.4,0.1,0.7,0.3,0.9c0.2,0.2,0.5,0.3,0.9,0.3c0.7,0,1-0.3,1.1-0.9c0-0.3-0.1-0.6-0.3-0.7
		C4.3,8.6,4.1,8.6,3.8,8.6c-0.3,0-0.5,0-0.7,0.1V7.1c0.2,0,0.4,0,0.7,0c0.3,0,0.5,0,0.7-0.1C4.8,7,4.9,6.8,4.9,6.5
		c0-0.2-0.1-0.4-0.3-0.5C4.4,5.8,4.2,5.8,3.9,5.8C3.6,5.8,3.4,5.9,3.2,6C3,6.2,2.9,6.4,2.9,6.8L0.9,6.8z"/>
	<path id="XMLID_1409_" d="M8.2,4H12c1.3,0,2.2,0.4,2.7,1.2c0.5,0.8,0.8,1.7,0.8,2.7c0,2.6-1.3,3.9-3.9,4H8.2V4z M10.5,9.9h0.9
		c0.4,0,0.7-0.1,0.9-0.2c0.2-0.1,0.4-0.3,0.5-0.5C12.9,9,13,8.7,13.1,8.5c0-0.2,0.1-0.4,0.1-0.6c0-0.1,0-0.3,0-0.5
		c0-0.2-0.1-0.4-0.2-0.6c-0.1-0.2-0.3-0.4-0.6-0.5C12,6.1,11.7,6,11.3,6h-0.8V9.9z"/>
</g>
</svg>
